<mxfile host="Electron" modified="2024-01-24T19:02:47.308Z" agent="Mozilla/5.0 (X11; Linux x86_64) AppleWebKit/537.36 (KHTML, like Gecko) draw.io/22.1.21 Chrome/120.0.6099.109 Electron/28.1.2 Safari/537.36" etag="ZDwbaLmu3AJXpfyBvsnr" version="22.1.21" type="device">
  <diagram name="Page-1" id="xf0AQ93oGzt5BR8i5XPH">
    <mxGraphModel dx="610" dy="374" grid="0" gridSize="10" guides="1" tooltips="1" connect="1" arrows="1" fold="1" page="1" pageScale="1" pageWidth="850" pageHeight="1100" math="1" shadow="0">
      <root>
        <mxCell id="0" />
        <mxCell id="1" parent="0" />
        <mxCell id="KAg_XVsrOBVdoXtVVLUv-10" value="" style="edgeStyle=orthogonalEdgeStyle;rounded=0;orthogonalLoop=1;jettySize=auto;html=1;" parent="1" source="KAg_XVsrOBVdoXtVVLUv-1" target="KAg_XVsrOBVdoXtVVLUv-9" edge="1">
          <mxGeometry relative="1" as="geometry" />
        </mxCell>
        <mxCell id="KAg_XVsrOBVdoXtVVLUv-1" value="" style="ellipse;whiteSpace=wrap;html=1;aspect=fixed;" parent="1" vertex="1">
          <mxGeometry x="200" y="240" width="40" height="40" as="geometry" />
        </mxCell>
        <mxCell id="KAg_XVsrOBVdoXtVVLUv-3" value="" style="endArrow=none;html=1;rounded=0;entryX=1;entryY=0;entryDx=0;entryDy=0;exitX=0;exitY=1;exitDx=0;exitDy=0;" parent="1" source="KAg_XVsrOBVdoXtVVLUv-1" target="KAg_XVsrOBVdoXtVVLUv-1" edge="1">
          <mxGeometry width="50" height="50" relative="1" as="geometry">
            <mxPoint x="195" y="285" as="sourcePoint" />
            <mxPoint x="245" y="235" as="targetPoint" />
          </mxGeometry>
        </mxCell>
        <mxCell id="KAg_XVsrOBVdoXtVVLUv-4" value="" style="endArrow=none;html=1;rounded=0;entryX=0;entryY=0;entryDx=0;entryDy=0;exitX=1;exitY=1;exitDx=0;exitDy=0;" parent="1" source="KAg_XVsrOBVdoXtVVLUv-1" target="KAg_XVsrOBVdoXtVVLUv-1" edge="1">
          <mxGeometry width="50" height="50" relative="1" as="geometry">
            <mxPoint x="210" y="310" as="sourcePoint" />
            <mxPoint x="260" y="260" as="targetPoint" />
          </mxGeometry>
        </mxCell>
        <mxCell id="KAg_XVsrOBVdoXtVVLUv-5" value="" style="endArrow=classic;html=1;rounded=0;" parent="1" edge="1">
          <mxGeometry width="50" height="50" relative="1" as="geometry">
            <mxPoint x="140" y="259.89" as="sourcePoint" />
            <mxPoint x="200" y="259.89" as="targetPoint" />
          </mxGeometry>
        </mxCell>
        <mxCell id="KAg_XVsrOBVdoXtVVLUv-7" value="$$R(s)$$" style="text;html=1;align=center;verticalAlign=middle;resizable=0;points=[];autosize=1;strokeColor=none;fillColor=none;" parent="1" vertex="1">
          <mxGeometry x="130" y="230" width="70" height="30" as="geometry" />
        </mxCell>
        <mxCell id="KAg_XVsrOBVdoXtVVLUv-22" value="" style="edgeStyle=orthogonalEdgeStyle;rounded=0;orthogonalLoop=1;jettySize=auto;html=1;" parent="1" source="KAg_XVsrOBVdoXtVVLUv-8" target="KAg_XVsrOBVdoXtVVLUv-20" edge="1">
          <mxGeometry relative="1" as="geometry" />
        </mxCell>
        <mxCell id="KAg_XVsrOBVdoXtVVLUv-8" value="$$P(s)$$" style="rounded=0;whiteSpace=wrap;html=1;" parent="1" vertex="1">
          <mxGeometry x="420" y="240" width="40" height="40" as="geometry" />
        </mxCell>
        <mxCell id="KAg_XVsrOBVdoXtVVLUv-11" value="" style="edgeStyle=orthogonalEdgeStyle;rounded=0;orthogonalLoop=1;jettySize=auto;html=1;" parent="1" source="KAg_XVsrOBVdoXtVVLUv-9" target="KAg_XVsrOBVdoXtVVLUv-8" edge="1">
          <mxGeometry relative="1" as="geometry" />
        </mxCell>
        <mxCell id="KAg_XVsrOBVdoXtVVLUv-9" value="$$C(s)$$" style="rounded=0;whiteSpace=wrap;html=1;" parent="1" vertex="1">
          <mxGeometry x="280" y="240" width="80" height="40" as="geometry" />
        </mxCell>
        <mxCell id="KAg_XVsrOBVdoXtVVLUv-12" value="$$E(s)$$" style="text;html=1;align=center;verticalAlign=middle;resizable=0;points=[];autosize=1;strokeColor=none;fillColor=none;" parent="1" vertex="1">
          <mxGeometry x="220" y="230" width="70" height="30" as="geometry" />
        </mxCell>
        <mxCell id="KAg_XVsrOBVdoXtVVLUv-14" value="$$+$$" style="text;html=1;strokeColor=none;fillColor=none;align=center;verticalAlign=middle;whiteSpace=wrap;rounded=0;" parent="1" vertex="1">
          <mxGeometry x="200" y="252.5" width="20" height="15" as="geometry" />
        </mxCell>
        <mxCell id="KAg_XVsrOBVdoXtVVLUv-15" value="$$-$$" style="text;html=1;strokeColor=none;fillColor=none;align=center;verticalAlign=middle;whiteSpace=wrap;rounded=0;" parent="1" vertex="1">
          <mxGeometry x="210" y="267.5" width="20" height="12.5" as="geometry" />
        </mxCell>
        <mxCell id="KAg_XVsrOBVdoXtVVLUv-24" style="edgeStyle=orthogonalEdgeStyle;rounded=0;orthogonalLoop=1;jettySize=auto;html=1;entryX=0.5;entryY=1;entryDx=0;entryDy=0;" parent="1" source="KAg_XVsrOBVdoXtVVLUv-20" target="KAg_XVsrOBVdoXtVVLUv-1" edge="1">
          <mxGeometry relative="1" as="geometry">
            <Array as="points">
              <mxPoint x="525" y="320" />
              <mxPoint x="220" y="320" />
            </Array>
          </mxGeometry>
        </mxCell>
        <mxCell id="KAg_XVsrOBVdoXtVVLUv-25" style="edgeStyle=orthogonalEdgeStyle;rounded=0;orthogonalLoop=1;jettySize=auto;html=1;" parent="1" source="KAg_XVsrOBVdoXtVVLUv-20" edge="1">
          <mxGeometry relative="1" as="geometry">
            <mxPoint x="560" y="260" as="targetPoint" />
          </mxGeometry>
        </mxCell>
        <mxCell id="KAg_XVsrOBVdoXtVVLUv-20" value="" style="ellipse;whiteSpace=wrap;html=1;aspect=fixed;" parent="1" vertex="1">
          <mxGeometry x="520" y="255" width="10" height="10" as="geometry" />
        </mxCell>
        <mxCell id="KAg_XVsrOBVdoXtVVLUv-26" value="$$Y(s)$$" style="text;html=1;align=center;verticalAlign=middle;resizable=0;points=[];autosize=1;strokeColor=none;fillColor=none;" parent="1" vertex="1">
          <mxGeometry x="510" y="230" width="70" height="30" as="geometry" />
        </mxCell>
      </root>
    </mxGraphModel>
  </diagram>
</mxfile>
